<svg xmlns="http://www.w3.org/2000/svg" viewBox="0 0 512 512" role="img" aria-labelledby="title desc">
  <!-- Source icon geometry based on @lucide/lab soccerBall, ISC licensed. -->
  <title id="title">WC Games Lucide soccer ball icon</title>
  <desc id="desc">Generic soccer ball icon on a dark navy background, based on Lucide Lab soccerBall.</desc>
  <defs>
    <linearGradient id="bg" x1="54" y1="44" x2="456" y2="468" gradientUnits="userSpaceOnUse">
      <stop offset="0" stop-color="#0b2340"/>
      <stop offset="1" stop-color="#061426"/>
    </linearGradient>
    <radialGradient id="glow" cx="0" cy="0" r="1" gradientTransform="translate(410 96) rotate(136.8) scale(148)" gradientUnits="userSpaceOnUse">
      <stop offset="0" stop-color="#1db954" stop-opacity=".32"/>
      <stop offset="1" stop-color="#1db954" stop-opacity="0"/>
    </radialGradient>
  </defs>
  <rect width="512" height="512" rx="96" fill="url(#bg)"/>
  <circle cx="410" cy="96" r="148" fill="url(#glow)"/>
  <circle cx="258" cy="258" r="152" fill="#08182d" opacity=".28"/>
  <g transform="translate(82 82) scale(14.5)" fill="none" stroke="#ffffff" stroke-linecap="round" stroke-linejoin="round" stroke-width="1.8">
    <circle cx="12" cy="12" r="10"/>
    <path d="M11.9 6.7s-3 1.3-5 3.6c0 0 0 3.6 1.9 5.9 0 0 3.1.7 6.2 0 0 0 1.9-2.3 1.9-5.9 0 .1-2-2.3-5-3.6"/>
    <path d="M11.9 6.7V2"/>
    <path d="M16.9 10.4s3-1.4 4.5-1.6"/>
    <path d="M15 16.3s1.9 2.7 2.9 3.7"/>
    <path d="M8.8 16.3S6.9 19 6 20"/>
    <path d="M2.6 8.7C4 9 7 10.4 7 10.4"/>
  </g>
  <path fill="none" stroke="#1db954" stroke-linecap="round" stroke-width="16" d="M208 404h96"/>
</svg>
