<svg xmlns="http://www.w3.org/2000/svg" viewBox="0 0 1200 630" role="img" aria-labelledby="title desc">
  <!-- Source icon geometry based on @lucide/lab soccerBall, ISC licensed. -->
  <title id="title">WC Games Lucide soccer ball social image</title>
  <desc id="desc">Generic soccer ball icon on a dark navy background for social sharing, based on Lucide Lab soccerBall.</desc>
  <defs>
    <linearGradient id="bg" x1="82" y1="48" x2="1118" y2="582" gradientUnits="userSpaceOnUse">
      <stop offset="0" stop-color="#0b2340"/>
      <stop offset="1" stop-color="#061426"/>
    </linearGradient>
    <radialGradient id="glow" cx="0" cy="0" r="1" gradientTransform="translate(1018 92) rotate(136.6) scale(292)" gradientUnits="userSpaceOnUse">
      <stop offset="0" stop-color="#1db954" stop-opacity=".28"/>
      <stop offset="1" stop-color="#1db954" stop-opacity="0"/>
    </radialGradient>
  </defs>
  <rect width="1200" height="630" rx="44" fill="url(#bg)"/>
  <circle cx="1018" cy="92" r="292" fill="url(#glow)"/>
  <circle cx="610" cy="322" r="210" fill="#08182d" opacity=".3"/>
  <g transform="translate(390 104) scale(18)" fill="none" stroke="#ffffff" stroke-linecap="round" stroke-linejoin="round" stroke-width="1.8">
    <circle cx="12" cy="12" r="10"/>
    <path d="M11.9 6.7s-3 1.3-5 3.6c0 0 0 3.6 1.9 5.9 0 0 3.1.7 6.2 0 0 0 1.9-2.3 1.9-5.9 0 .1-2-2.3-5-3.6"/>
    <path d="M11.9 6.7V2"/>
    <path d="M16.9 10.4s3-1.4 4.5-1.6"/>
    <path d="M15 16.3s1.9 2.7 2.9 3.7"/>
    <path d="M8.8 16.3S6.9 19 6 20"/>
    <path d="M2.6 8.7C4 9 7 10.4 7 10.4"/>
  </g>
</svg>
