<svg width="999" height="404" viewBox="0 0 999 404" fill="none" xmlns="http://www.w3.org/2000/svg">
<path d="M0 344.582L49.0214 308.926C49.0214 308.926 75.0425 344.744 111.143 344.744C135.263 344.744 156.456 331.612 156.456 310.513C156.456 258.314 16.7742 271.907 16.7742 170.358C16.7742 120.042 55.4275 82.7353 112.915 82.7353C176.266 82.7353 205.384 129.442 205.384 129.442L158.598 163.35C158.598 163.35 139.991 141.021 114.057 141.021C91.8808 141.021 79.1521 153.454 79.1521 170.135C79.1521 221.725 218.806 211.553 218.806 309.372C218.806 361.403 178.477 403.44 111.566 403.44C39.2375 403.44 0 344.582 0 344.582Z" fill="white"/>
<path d="M225.061 88.6644H292.19L373.442 306.531L454.405 88.6644H521.911L406.578 396.975H339.544L225.061 88.6644Z" fill="white"/>
<path d="M552.767 0H615.235V88.3622H710.613L688.113 149.42H615.235V298.559C615.235 319.562 631.294 343.792 656.81 343.792C675.099 343.792 689.21 331.377 689.21 331.377L728.329 375.815C728.329 375.815 703.584 403.502 656.033 403.502C591.38 403.502 552.641 348.207 552.641 301.699L552.767 0Z" fill="white"/>
<path fill-rule="evenodd" clip-rule="evenodd" d="M779.824 88.2224V399.268L999 243.089L779.824 88.2224Z" fill="#00C901"/>
</svg>
